<svg xmlns="http://www.w3.org/2000/svg" viewBox="0 0 128 128">
<!--!Font Awesome Free 6.5.2 by @fontawesome - https://fontawesome.com License - https://fontawesome.com/license/free Copyright 2024 Fonticons, Inc.-->
<path fill="#eee" d="m 51.958862,79.051839 v 0 c 0,-3.048 0.244593,-1.63689 -16.011406,-34.148892 -3.330226,-6.641621 -12.831709,-6.660437 -16.161927,0 C 3.3978236,77.697169 3.7929386,76.097909 3.7929386,79.051839 v 0 c 0,8.31615 10.7808854,15.05185 24.0829584,15.05185 13.302072,0 24.082965,-6.7357 24.082965,-15.05185 z M 27.875897,48.948131 41.422563,76.041469 H 14.32923 Z m 96.331853,30.103708 c 0,-3.048 0.24459,-1.63689 -16.01141,-34.148892 -3.33021,-6.641621 -12.831701,-6.660437 -16.161921,0 -16.38771,32.794222 -15.99259,31.194962 -15.99259,34.148892 v 0 c 0,8.31615 10.78088,15.05185 24.082961,15.05185 13.30208,0 24.08296,-6.7357 24.08296,-15.05185 z M 86.578129,76.041469 100.12479,48.948131 113.67146,76.041469 Z M 103.13516,100.12443 H 70.021083 V 44.677169 c 4.421486,-1.937927 7.751706,-5.926656 8.730076,-10.780878 h 24.384001 c 1.6557,0 3.01037,-1.354666 3.01037,-3.010375 V 24.86518 c 0,-1.655708 -1.35467,-3.010375 -3.01037,-3.010375 H 75.966569 c -2.746965,-3.631267 -7.055558,-6.020743 -11.966229,-6.020743 -4.910663,0 -9.219256,2.389476 -11.966222,6.020743 H 24.865529 c -1.655702,0 -3.010368,1.354667 -3.010368,3.010375 v 6.020736 c 0,1.655709 1.354666,3.010375 3.010368,3.010375 h 24.383999 c 0.978368,4.854222 4.308594,8.842958 8.730077,10.780878 V 100.12443 H 24.865529 c -1.655702,0 -3.010368,1.35467 -3.010368,3.01037 v 6.02074 c 0,1.65571 1.354666,3.01038 3.010368,3.01038 h 78.269631 c 1.6557,0 3.01037,-1.35467 3.01037,-3.01038 v -6.02074 c 0,-1.6557 -1.35467,-3.01037 -3.01037,-3.01037 z"/>
</svg>
