<svg xmlns="http://www.w3.org/2000/svg" viewBox="0 0 128 128">
<!--!Font Awesome Free 6.5.2 by @fontawesome - https://fontawesome.com License - https://fontawesome.com/license/free Copyright 2024 Fonticons, Inc.-->
<path fill="#eee" d="m 112.17046,15.838751 c -9.74607,0.677333 -78.194249,7.187246 -82.973207,54.111326 -0.58326,5.023542 -0.90311,10.047092 -1.128887,15.089452 L 61.728018,51.417512 c 1.185328,-1.185335 3.08562,-1.185335 4.270955,0 1.185328,1.185328 1.185328,3.085627 0,4.252139 L 17.155792,104.45639 c -1.768594,1.76859 -1.768594,4.62844 0,6.37821 1.768588,1.76859 4.628438,1.76859 6.397025,0 l 10.743244,-10.74324 c 7.921026,-0.0188 15.842044,-0.470371 23.706629,-1.392291 10.065912,-1.016 18.250339,-4.98592 24.948409,-10.63036 H 63.94816 l 27.620099,-9.20042 c 2.12607,-2.80341 4.02636,-5.776145 5.73851,-8.861772 H 82.047989 L 102.08573,59.997054 c 7.88339,-19.153449 9.74606,-39.210015 10.08473,-44.158303 z"/>
</svg>
