<svg xmlns="http://www.w3.org/2000/svg" viewBox="0 0 128 128">
<!--!Font Awesome Free 6.5.2 by @fontawesome - https://fontawesome.com License - https://fontawesome.com/license/free Copyright 2024 Fonticons, Inc.-->
<path fill="#eee" d="m 117.78679,68.589551 -8.5164,-34.1596 c -1.1092,-4.4556 -4.0608,-8.2908 -8.084,-10.4904 -4.0232,-2.1996 -8.836001,-2.6508 -13.197601,-1.1844 l -2.8764,0.9588 c -1.5792,0.5264 -2.4252,2.2372 -1.8988,3.7976 l 0.9588,2.8576 c 0.526401,1.5792 2.2372,2.4252 3.7976,1.8988 l 2.4816,-0.8272 c 2.0492,-0.6768 4.324,-0.6768 6.2416,0.3196 1.9364,1.0152 3.308801,2.7448 3.835201,4.8504 l 7.238,28.9144 c -4.1736,-1.2784 -9.362401,-2.35 -15.265601,-2.35 -6.5424,0 -13.912,1.316 -21.6012,5.0196 h -13.7616 c -7.689199,-3.7036 -15.0588,-5.0384 -21.6012,-5.0384 -5.9032,0 -11.092,1.0716 -15.2656,2.35 l 7.238,-28.9144 c 0.5264,-2.1244 1.8988,-3.854 3.8352,-4.8504 1.9176,-0.9964 4.1924,-1.0152 6.2416,-0.3196 l 2.4816,0.8272 c 1.5792,0.5264 3.2712,-0.3196 3.7976,-1.8988 l 0.9588,-2.8576 c 0.5264,-1.5792 -0.3196,-3.29 -1.8988,-3.7976 l -2.8764,-0.9588 c -4.3616,-1.4664 -9.1744,-1.0152 -13.1976,1.1844 -4.0232,2.2184 -6.9748,6.0348 -8.084,10.4904 l -8.554,34.1784 a 12.0696,12.0696 0 0 0 -0.3571995,2.914 v 13.2164 c 0,11.8064 9.7007995,21.394399 21.6575995,21.394399 h 6.9748 c 11.3364,0 20.7552,-8.629199 21.6012,-19.815199 l 0.5452,-7.2568 h 6.7304 l 0.5452,7.2568 c 0.846,11.186 10.2648,19.815199 21.6012,19.815199 h 6.974801 c 11.9568,0 21.6576,-9.587999 21.6576,-21.413199 v -13.2164 c 0,-0.9776 -0.1128,-1.9552 -0.3572,-2.914 z m -69.691601,16.8072 c -0.376,4.8692 -4.5872,8.6856 -9.6068,8.6856 h -6.9748 c -5.3016,0 -9.6256,-4.2112 -9.6256,-9.3812 v -7.05 c 3.4028,-1.222 8.1592,-2.4252 13.6488,-2.4252 4.4932,0 8.8924,0.8084 13.1412,2.4252 z m 58.016801,-0.6956 c 0,5.17 -4.324,9.3812 -9.625601,9.3812 h -6.9748 c -5.0196,0 -9.2308,-3.8164 -9.6068,-8.6856 l -0.5828,-7.7456 c 4.2676,-1.6168 8.6668,-2.4252 13.16,-2.4252 5.4708,0 10.227201,1.2032 13.648801,2.4252 v 7.05 z"/>
</svg>
