<svg xmlns="http://www.w3.org/2000/svg" viewBox="0 0 128 128">
<!--!Font Awesome Free 6.5.2 by @fontawesome - https://fontawesome.com License - https://fontawesome.com/license/free Copyright 2024 Fonticons, Inc.-->
<path d="m 39.747641,43.397714 c 0.244593,1.448737 1.505187,2.539993 3.010372,2.539993 h 3.104436 c 1.843851,0 3.311405,-1.599258 3.066811,-3.386662 -0.714964,-5.305769 -3.085627,-10.197609 -6.886211,-14.054641 -2.709331,-2.765777 -4.440294,-6.265327 -4.967106,-10.065912 -0.206961,-1.486369 -1.486369,-2.59644 -3.029179,-2.59644 h -3.085627 c -1.843851,0 -3.273773,1.599256 -3.066811,3.386662 0.73378,6.001917 3.386661,11.533464 7.638807,15.879676 2.257775,2.295406 3.706512,5.174065 4.214508,8.297324 z m 21.072566,0 c 0.244586,1.448737 1.505178,2.539993 3.010363,2.539993 h 3.104436 c 1.843852,0 3.311406,-1.599258 3.066814,-3.386662 -0.71496,-5.305769 -3.085622,-10.197609 -6.886214,-14.054641 -2.709329,-2.765777 -4.440284,-6.265327 -4.967103,-10.065912 -0.206962,-1.486369 -1.486369,-2.59644 -3.029179,-2.59644 h -3.085628 c -1.843844,0 -3.292581,1.599256 -3.066804,3.386662 0.733773,6.001917 3.386662,11.533464 7.638801,15.879676 2.257774,2.295406 3.706511,5.174065 4.214514,8.297324 z m 30.272982,8.560725 H 21.854783 c -3.33022,0 -6.020734,2.690513 -6.020734,6.020734 v 36.124386 c 0,9.971831 8.090356,18.062201 18.062194,18.062201 h 36.124392 c 9.971834,0 18.062194,-8.09037 18.062194,-18.062201 h 3.01036 c 11.627541,0 21.072571,-9.44503 21.072571,-21.072563 0,-11.627537 -9.44503,-21.072557 -21.072571,-21.072557 z m 0,30.10365 h -3.01036 v -18.06219 h 3.01036 c 4.98592,0 9.031101,4.045178 9.031101,9.031097 0,4.985923 -4.045181,9.031093 -9.031101,9.031093 z"/>
</svg>
