<svg xmlns="http://www.w3.org/2000/svg" viewBox="0 0 128 128">
<!--!Font Awesome Free 6.5.2 by @fontawesome - https://fontawesome.com License - https://fontawesome.com/license/free Copyright 2024 Fonticons, Inc.-->
<path d="m 63.999989,21.85487 c -29.934325,0 -54.1865819,24.252257 -54.1865819,54.186579 0,9.9342 2.6905129,19.24752 7.3565819,27.243801 1.053631,1.80622 3.066811,2.85985 5.155249,2.85985 h 83.349502 c 2.08844,0 4.10162,-1.05363 5.15525,-2.85985 4.68488,-7.996281 7.35658,-17.309601 7.35658,-27.243801 0,-29.934322 -24.252261,-54.186579 -54.186581,-54.186579 z m 0,12.04146 c 2.765777,0 5.004735,1.900293 5.700884,4.459108 -0.206969,0.432739 -0.489187,0.790221 -0.658524,1.260585 l -1.730955,5.211697 c -0.959558,0.658516 -2.069629,1.128887 -3.311405,1.128887 -3.330213,0 -6.020734,-2.690513 -6.020734,-6.020727 0,-3.33022 2.690521,-6.03955 6.020734,-6.03955 z M 27.875601,88.082909 c -3.330213,0 -6.020734,-2.69051 -6.020734,-6.02073 0,-3.33022 2.690521,-6.02073 6.020734,-6.02073 3.330221,0 6.020734,2.69051 6.020734,6.02073 0,3.33022 -2.690513,6.02073 -6.020734,6.02073 z m 9.031097,-30.10365 c -3.330213,0 -6.020734,-2.690513 -6.020734,-6.020734 0,-3.330214 2.690521,-6.020734 6.020734,-6.020734 3.330221,0 6.020734,2.69052 6.020734,6.020734 0,3.330221 -2.690513,6.020734 -6.020734,6.020734 z m 46.434891,-13.62191 -11.533463,34.61921 c 2.558813,2.20132 4.233323,5.43746 4.233323,9.10635 0,2.20133 -0.6397,4.25214 -1.67451,6.02073 H 53.633043 c -1.034814,-1.78741 -1.674514,-3.8194 -1.674514,-6.02073 0,-6.37821 4.985919,-11.55228 11.270055,-11.9662 L 74.762049,41.497506 c 0.79022,-2.370663 3.33021,-3.668887 5.71969,-2.85985 2.37066,0.790221 3.65007,3.34903 2.85985,5.719693 z m 2.76577,10.76206 2.91629,-8.767688 c 0.65852,-0.244594 1.33585,-0.41393 2.08845,-0.41393 3.33021,0 6.02072,2.69052 6.02072,6.020734 0,3.330221 -2.69051,6.020734 -6.02072,6.020734 -2.14489,0 -3.93229,-1.185335 -5.00474,-2.85985 z m 14.017021,32.9635 c -3.330221,0 -6.020741,-2.69051 -6.020741,-6.02073 0,-3.33022 2.69052,-6.02073 6.020741,-6.02073 3.33021,0 6.02073,2.69051 6.02073,6.02073 0,3.33022 -2.69052,6.02073 -6.02073,6.02073 z"/>
</svg>
