<svg xmlns="http://www.w3.org/2000/svg" viewBox="0 0 128 128">
<!--!Font Awesome Free 6.5.2 by @fontawesome - https://fontawesome.com License - https://fontawesome.com/license/free Copyright 2024 Fonticons, Inc.-->
<path d="m 69.493835,19.9912 c -1.486369,-5.418651 -9.294506,-5.663245 -10.987837,0 -8.805319,29.689731 -27.620102,37.742455 -27.620102,58.664499 0,18.53256 14.807237,33.509141 33.114024,33.509141 18.306779,0 33.114019,-14.995391 33.114019,-33.509141 0,-21.034933 -18.77715,-28.84307 -27.620104,-58.664499 z m -5.493915,80.13217 c -11.627537,0 -21.072564,-9.463841 -21.072564,-21.072561 0,-1.6557 1.354665,-3.01037 3.01037,-3.01037 1.655699,0 3.010364,1.35467 3.010364,3.01037 0,8.29732 6.754507,15.05183 15.05183,15.05183 1.655699,0 3.010364,1.35467 3.010364,3.01037 0,1.6557 -1.354665,3.010361 -3.010364,3.010361 z"/>
</svg>
